<svg width="442" height="381" viewBox="0 0 442 381" fill="none" xmlns="http://www.w3.org/2000/svg">
<path opacity="0.1" d="M53.0052 64.7354C57.0425 40.6465 77.8926 23 102.317 23H392C419.614 23 442 45.3858 442 73V331C442 358.614 419.614 381 392 381H59.0772C28.1619 381 4.65495 353.225 9.76502 322.735L53.0052 64.7354Z" fill="#68C9BA"/>
<path d="M410.014 126.03C435.738 155.207 405.363 183.381 351.903 184.141C245.616 177.137 221.631 83.0074 229.664 61.9028C237.697 40.7982 261.615 40.2221 297.054 83.2151C332.493 126.208 377.858 89.5572 410.014 126.03Z" stroke="white" stroke-width="1.5"/>
<ellipse cx="305.634" cy="91.1502" rx="16.8481" ry="9.95569" transform="rotate(20.7184 305.634 91.1502)" stroke="white" stroke-width="1.5"/>
</svg>
